<?xml version="1.0" standalone="no"?>
<!DOCTYPE svg PUBLIC "-//W3C//DTD SVG 20010904//EN"
 "http://www.w3.org/TR/2001/REC-SVG-20010904/DTD/svg10.dtd">
<svg version="1.0" xmlns="http://www.w3.org/2000/svg"
 width="512.000000pt" height="512.000000pt" viewBox="0 0 512.000000 512.000000"
 preserveAspectRatio="xMidYMid meet">

<g transform="translate(0.000000,512.000000) scale(0.100000,-0.100000)"
fill="#000000" stroke="none">
<path d="M3564 4960 c-17 -6 -28 -36 -58 -150 -20 -78 -41 -151 -45 -162 -6
-17 -80 -55 -143 -75 -11 -3 -72 26 -157 76 -77 44 -146 81 -153 81 -17 0
-248 -231 -248 -249 0 -7 36 -76 81 -153 47 -82 79 -147 76 -156 -9 -27 -54
-132 -59 -138 -3 -3 -75 -23 -159 -45 -94 -24 -159 -46 -166 -56 -18 -24 -18
-312 0 -337 8 -11 70 -32 172 -60 101 -27 160 -48 163 -57 2 -8 15 -42 28 -76
29 -71 36 -49 -67 -224 -38 -64 -69 -125 -69 -134 0 -27 219 -245 246 -245 12
0 84 36 159 80 l137 81 78 -32 78 -32 37 -146 c21 -80 44 -156 52 -168 13 -22
18 -23 177 -23 143 0 165 2 178 18 8 9 32 85 54 168 l38 152 78 31 77 32 139
-80 c76 -45 147 -81 158 -81 25 0 244 219 244 244 0 11 -36 81 -81 157 l-81
139 32 78 32 78 149 38 c81 21 157 45 169 53 19 13 20 25 20 177 0 123 -3 166
-13 174 -7 6 -83 30 -168 52 -84 23 -155 42 -155 43 -1 1 -16 37 -34 79 l-31
77 80 137 c45 75 81 144 81 154 0 22 -221 250 -243 250 -9 0 -77 -36 -153 -80
-75 -44 -140 -80 -144 -80 -5 0 -42 13 -82 29 l-73 30 -42 158 c-27 101 -48
162 -59 170 -20 15 -295 18 -330 3z m296 -780 c78 -26 114 -49 178 -112 208
-206 147 -567 -118 -696 -246 -120 -539 9 -615 272 -27 92 -18 213 22 298 96
205 327 308 533 238z"/>
<path d="M1034 3001 c-184 -66 -304 -238 -304 -436 0 -329 338 -549 642 -418
l37 16 -27 38 c-17 25 -32 37 -42 33 -8 -3 -43 -13 -78 -21 -113 -29 -233 7
-325 96 -60 57 -92 118 -108 204 -10 56 -10 76 4 134 30 120 118 221 227 260
52 18 55 24 44 82 -8 36 -4 36 -70 12z"/>
<path d="M1900 1096 c0 -91 -1 -94 -25 -100 -53 -13 -56 -80 -4 -98 28 -10 29
-11 29 -84 0 -67 -2 -74 -20 -74 -11 0 -27 -11 -36 -25 -15 -23 -15 -27 0 -50
9 -14 25 -25 36 -25 14 0 20 -7 20 -23 0 -53 30 -123 71 -164 55 -56 109 -73
231 -73 l98 0 0 -30 c0 -43 31 -100 78 -142 120 -108 314 -48 358 111 l17 59
112 3 c104 4 115 6 161 34 61 38 105 107 112 174 4 44 7 50 32 55 52 10 52 82
-1 93 -29 5 -29 6 -29 77 0 72 0 72 33 87 26 11 32 20 32 44 0 24 -6 33 -32
45 l-33 15 0 93 0 92 -620 0 -620 0 0 -94z"/>
</g>
</svg>
