<?xml version="1.0" standalone="no"?>
<!DOCTYPE svg PUBLIC "-//W3C//DTD SVG 20010904//EN"
 "http://www.w3.org/TR/2001/REC-SVG-20010904/DTD/svg10.dtd">
<svg version="1.0" xmlns="http://www.w3.org/2000/svg"
 width="512.000000pt" height="512.000000pt" viewBox="0 0 512.000000 512.000000"
 preserveAspectRatio="xMidYMid meet">

<g transform="translate(0.000000,512.000000) scale(0.100000,-0.100000)"
fill="#000000" stroke="none">
<path d="M2370 5109 c-355 -40 -684 -193 -940 -436 -475 -451 -637 -1099 -433
-1728 77 -237 204 -437 426 -673 133 -141 187 -218 257 -364 104 -219 130
-365 130 -738 l0 -266 -42 -19 c-130 -61 -111 -255 27 -281 28 -5 34 -11 39
-39 26 -138 149 -318 286 -420 61 -45 171 -98 250 -121 81 -23 278 -26 360 -5
251 63 461 255 537 491 27 86 29 90 58 90 77 0 145 70 145 147 0 79 -48 138
-122 150 l-40 6 5 346 c4 385 9 417 81 597 64 158 139 263 326 454 257 264
402 541 467 895 24 128 23 425 -1 560 -128 710 -700 1256 -1414 1350 -121 16
-281 18 -402 4z m445 -314 c267 -56 482 -168 673 -349 209 -200 342 -442 399
-726 24 -118 24 -383 0 -502 -35 -176 -108 -352 -208 -501 -29 -43 -116 -145
-193 -226 -163 -171 -247 -283 -321 -431 -84 -168 -131 -323 -150 -503 l-6
-57 -150 0 -149 0 0 513 0 512 281 420 c154 231 289 437 300 457 25 49 24 94
-4 142 -25 45 -77 76 -125 76 -58 0 -104 -33 -155 -109 l-47 -71 -181 90
c-132 66 -191 90 -219 90 -28 0 -87 -24 -219 -90 l-181 -90 -47 71 c-51 76
-97 109 -155 109 -82 0 -152 -77 -145 -160 3 -40 38 -97 300 -490 l297 -445 0
-512 0 -513 -154 0 -154 0 -7 58 c-20 169 -79 352 -171 532 -78 152 -157 260
-296 406 -136 142 -213 247 -276 376 -103 208 -137 359 -136 603 0 135 5 191
22 272 57 264 180 491 367 678 222 223 482 346 815 389 72 9 317 -3 395 -19z
m-137 -1551 l113 -57 -17 -26 c-116 -178 -209 -311 -216 -309 -4 2 -58 77
-118 168 l-110 165 113 57 c61 31 114 57 117 58 3 0 56 -25 118 -56z m332
-2194 l0 -150 -450 0 -450 0 0 150 0 150 450 0 450 0 0 -150z m-30 -456 c0
-23 -71 -131 -110 -168 -174 -163 -434 -165 -613 -5 -44 39 -117 147 -117 173
0 3 189 6 420 6 231 0 420 -3 420 -6z"/>
<path d="M414 4802 c-95 -60 -109 -170 -31 -239 18 -15 95 -64 172 -108 123
-71 145 -80 190 -80 61 0 104 27 130 81 21 45 16 111 -13 151 -11 16 -86 66
-173 117 -173 100 -219 113 -275 78z"/>
<path d="M4570 4802 c-123 -63 -295 -171 -312 -195 -29 -40 -34 -106 -13 -151
26 -54 70 -81 130 -81 44 0 67 9 187 78 158 90 195 118 214 164 19 44 18 69
-6 118 -36 75 -127 105 -200 67z"/>
<path d="M78 3599 c-43 -22 -78 -81 -78 -129 0 -48 33 -103 78 -128 37 -21 52
-22 226 -22 217 0 250 9 286 80 25 50 25 90 0 140 -36 71 -69 80 -287 80 -167
-1 -192 -3 -225 -21z"/>
<path d="M4588 3599 c-43 -22 -78 -81 -78 -129 0 -48 33 -103 78 -128 37 -21
52 -22 226 -22 167 0 191 2 226 20 45 23 80 80 80 130 0 50 -35 107 -80 130
-35 18 -58 20 -227 20 -167 -1 -192 -3 -225 -21z"/>
<path d="M556 2486 c-165 -94 -200 -123 -217 -173 -31 -95 56 -202 155 -191
52 6 339 171 368 211 29 40 34 106 13 151 -23 48 -67 78 -124 83 -43 4 -56 -1
-195 -81z"/>
<path d="M4312 2553 c-52 -25 -77 -69 -77 -133 0 -81 19 -102 196 -204 177
-102 213 -112 278 -75 43 24 81 84 81 127 0 35 -25 85 -56 113 -26 23 -206
130 -291 173 -41 20 -89 20 -131 -1z"/>
</g>
</svg>
