<?xml version="1.0" standalone="no"?>
<!DOCTYPE svg PUBLIC "-//W3C//DTD SVG 20010904//EN"
 "http://www.w3.org/TR/2001/REC-SVG-20010904/DTD/svg10.dtd">
<svg version="1.0" xmlns="http://www.w3.org/2000/svg"
 width="512.000000pt" height="512.000000pt" viewBox="0 0 512.000000 512.000000"
 preserveAspectRatio="xMidYMid meet">

<g transform="translate(0.000000,512.000000) scale(0.100000,-0.100000)"
fill="#000000" stroke="none">
<path d="M2350 5110 c-620 -56 -1159 -308 -1596 -744 -400 -401 -639 -874
-726 -1441 -28 -185 -30 -521 -4 -700 16 -114 50 -284 58 -289 1 -1 280 71
618 162 572 153 621 164 705 165 83 0 118 -7 475 -101 212 -56 403 -111 426
-121 70 -33 93 -110 51 -172 -40 -59 -55 -60 -402 -29 -183 16 -319 24 -332
19 -26 -10 -45 -42 -41 -71 7 -49 35 -55 343 -83 160 -14 313 -25 340 -25 99
0 204 76 235 170 15 47 2 42 210 69 657 86 867 111 892 106 38 -9 93 -65 101
-103 8 -39 -8 -96 -36 -127 -15 -16 -192 -98 -532 -245 -280 -122 -589 -255
-685 -297 -96 -42 -206 -84 -244 -95 -77 -20 -194 -24 -275 -8 -29 5 -246 82
-484 171 -238 89 -457 168 -487 177 -68 18 -204 11 -274 -14 -39 -13 -296
-172 -329 -204 -5 -4 10 -39 34 -76 93 -150 217 -303 363 -450 415 -414 892
-650 1491 -736 118 -17 510 -17 635 1 579 79 1086 329 1489 732 403 403 651
907 733 1489 21 152 16 514 -10 685 -87 566 -325 1040 -726 1441 -401 400
-881 642 -1439 725 -152 22 -438 32 -577 19z m748 -960 l462 -134 -2 -650 -3
-650 -468 -158 -467 -157 -468 158 -467 158 -3 649 -2 649 467 137 c258 75
473 135 478 134 6 -1 218 -63 473 -136z m765 -354 c20 -61 55 -97 114 -116 58
-19 58 -25 -1 -43 -64 -21 -97 -55 -116 -121 -7 -25 -16 -46 -20 -46 -4 0 -13
21 -20 46 -19 66 -52 100 -116 121 -59 18 -59 24 -1 43 59 19 94 55 114 116 9
30 20 54 23 54 3 0 14 -24 23 -54z m-2690 -838 c33 -105 70 -142 175 -175 28
-9 52 -20 52 -23 0 -4 -28 -15 -62 -26 -89 -27 -132 -68 -160 -155 -12 -38
-25 -69 -28 -69 -4 0 -14 24 -23 53 -33 104 -70 141 -174 174 -29 9 -53 19
-53 23 0 3 34 18 74 33 89 33 114 59 146 151 13 36 27 66 30 66 4 0 14 -24 23
-52z"/>
</g>
</svg>
